<svg id="Capa_1" data-name="Capa 1" xmlns="http://www.w3.org/2000/svg" viewBox="0 0 163.93 149.67"><defs><style>.cls-1{fill:#1e1e1e;}</style></defs><title>bohemuselogo</title><g id="Capa_9" data-name="Capa 9"><path class="cls-1" d="M163.92,89.12a34.86,34.86,0,0,0-.61-6.52,39.92,39.92,0,0,0-1.61-5.75c-1.7-4.48-5.5-8.52-7.14-10.25-3.88-4.07-5-3.85-6.49-6.72-1.24-2.4-5.64-16.4-5.6-17.63a2.47,2.47,0,0,1,.13-.89,25.59,25.59,0,0,0-1.84-35.71c-8.33-7.72-23.17-7.57-35.17.67a.66.66,0,0,1-.71.1A59.89,59.89,0,0,0,86.54,4.77c-.74,0-1.17.52-.57,1a62.65,62.65,0,0,1,8.29,7.91l.91,1.08A.83.83,0,0,1,94,15.85L93,15A61.38,61.38,0,0,0,83.1,8.17c-.84-.47-1.69-.93-2.55-1.37a6,6,0,0,0-4.48-.55,70.26,70.26,0,0,0-30.46,15.2,67.7,67.7,0,0,0-5.23,5c-.1.11-.29.28-.7,0a25.62,25.62,0,1,0-15.42,47c.91,0,1,.51,1.06.74A61.7,61.7,0,0,0,27,81.58v.09c.16,1,3.65,20.44,30,30.27a4.47,4.47,0,0,1,1.59,1C70,131.57,87.7,139.23,106.46,139.89c4.94.18,16.5.68,29.05-5.23,2.51-1.17,6.53-4.1,10.91-7.57,7.61-6,14.43-17.78,15.6-22.54a61.71,61.71,0,0,0,1.21-6.28A51.86,51.86,0,0,0,163.92,89.12Zm-6.14,13c-3,10.68-10.17,17.13-13.71,20.23a52.44,52.44,0,0,1-21.81,11.13C109.41,136.62,96,134.66,84,128.75,68.38,121,61.36,107,59,101.4a1.78,1.78,0,0,0-1.37-.5c-.35.07-.72.12-1.09.16-7.79.84-16.62-5.89-18.06-13.85a17.46,17.46,0,0,1,.85-9.83,13.85,13.85,0,0,1,12.58-9,11.71,11.71,0,0,1,8.74,2.84h0a.18.18,0,0,0,.12.09h.13a.36.36,0,0,0,.34-.23h0a.17.17,0,0,0,0-.1h0c.35-2.4.78-4.36,1.12-5.75.75-3,1.88-6.58,1.88-6.58h0C67.85,49.43,75,39.77,88.9,33.21c24.92-11.74,37.5-4,42.56,1.12h0a17.21,17.21,0,0,1,2.77,3.59h0c.08.16.18.32.27.51.56,1.08,1.32,2.54,2.16,4.27.17.34.32.66.48,1s-.12.6-.56.32a7.72,7.72,0,0,0-1.92-.86h0a11.1,11.1,0,0,0-2.44-.4A9,9,0,0,0,124,46.38a.63.63,0,0,0,0,.87.59.59,0,0,0,.64.13c4.7-1.39,9-1.87,13.1-.1.38.17.75.35,1.13.55.12.07.43.29.47.45.32.76.57,1.41.76,2,.76,2.51.52,3,1.6,6.41a25.67,25.67,0,0,0,1.6,4,22.32,22.32,0,0,0,2,3.2.36.36,0,0,1,.13.5.34.34,0,0,1-.29.17,14,14,0,0,0-5.34,1.92c-3.12,1.87-5.52,4.41-5.64,8.43a.94.94,0,0,0,.89,1,.92.92,0,0,0,.77-.36c3.55-4.44,8.43-6.57,14.3-7.85a.64.64,0,0,1,.41.08A26.77,26.77,0,0,1,153.3,71a28.16,28.16,0,0,1,3.61,7,38.58,38.58,0,0,1,2.2,10.6,40.77,40.77,0,0,1-1.33,13.47Zm-7-30.59a2.26,2.26,0,1,0,2.44,2.07,2.27,2.27,0,0,0-2.44-2.07h0ZM88.42,80.78a.93.93,0,0,0,.13,1.31.89.89,0,0,0,.87.17c6.34-1.76,12.07-2.27,17.62.29a.93.93,0,0,0,1.24-.44.91.91,0,0,0,0-.85c-1.9-3.55-5.19-4.75-8.81-5a12.17,12.17,0,0,0-11,4.49Zm.45,5a2.26,2.26,0,1,0,3,1.08l0,0a2.25,2.25,0,0,0-3-1.1h0Zm-29.17,6c-3.89-.56-4-1.2-2.42-5.33a14,14,0,0,0,1.08-4.21c.13-3.26-1.59-5.54-4.5-6.84A6.46,6.46,0,0,0,46.18,77c-2,2-3.22,4.44-2.41,7.32a.8.8,0,0,0,1,.57l.16-.07c.87-.5.93-1.45,1.26-2.17,1.12-2.49,2.86-4,5.63-2.93s3.29,3.24,2.31,5.9a8.59,8.59,0,0,0-.34,5.48,3.89,3.89,0,0,0,3.37,3A3.05,3.05,0,0,0,60.26,93a.77.77,0,0,0-.13-1.08.86.86,0,0,0-.42-.16Zm91.08-20.28a2.26,2.26,0,1,0,2.44,2.07,2.27,2.27,0,0,0-2.44-2.07h0ZM88.42,80.8a.93.93,0,0,0,.13,1.31.89.89,0,0,0,.87.17c6.34-1.76,12.07-2.27,17.62.29a.93.93,0,0,0,1.24-.44.91.91,0,0,0,0-.85c-1.9-3.55-5.19-4.75-8.81-5a12.17,12.17,0,0,0-11,4.47Zm.45,5a2.26,2.26,0,1,0,3,1.08l0,0a2.24,2.24,0,0,0-3-1.12h0ZM61.27,71.07a.17.17,0,0,0,0-.1h0ZM59.71,91.78c-3.89-.56-4-1.2-2.42-5.33a14,14,0,0,0,1.08-4.21c.13-3.26-1.59-5.54-4.5-6.84A6.46,6.46,0,0,0,46.19,77c-2,2-3.22,4.44-2.41,7.32a.8.8,0,0,0,1,.57l.16-.07c.87-.5.93-1.45,1.26-2.17,1.12-2.49,2.86-4,5.63-2.93s3.29,3.24,2.31,5.9a8.59,8.59,0,0,0-.34,5.48,3.89,3.89,0,0,0,3.37,3A3.05,3.05,0,0,0,60.27,93a.76.76,0,0,0-.21-1.06A.87.87,0,0,0,59.71,91.78Z" transform="translate(0 9.69)"/><path class="cls-1" d="M60.27,93A3.05,3.05,0,0,1,57.14,94a3.89,3.89,0,0,1-3.37-3,8.59,8.59,0,0,1,.34-5.48c1-2.66.38-4.85-2.31-5.9s-4.51.44-5.63,2.93c-.33.72-.39,1.67-1.26,2.17a.77.77,0,0,1-1.06-.33.87.87,0,0,1-.07-.17c-.81-2.88.44-5.27,2.41-7.32a6.46,6.46,0,0,1,7.68-1.56c2.91,1.3,4.63,3.58,4.5,6.84a14,14,0,0,1-1.08,4.21c-1.53,4.13-1.47,4.77,2.42,5.33a.78.78,0,0,1,.69.85A.83.83,0,0,1,60.27,93Z" transform="translate(0 9.69)"/><path class="cls-1" d="M153.23,73.57a2.27,2.27,0,1,1-2.45-2.06h0A2.27,2.27,0,0,1,153.23,73.57Z" transform="translate(0 9.69)"/><path class="cls-1" d="M100.51,53.06c-4.84,1-8.84,2.56-11.67,6.1-.22.27-.43.55-.64.85-.32.47-.65.14-.68-.18a6.69,6.69,0,0,1,2.06-5.73h0a12.2,12.2,0,0,1,2-1.51,9,9,0,0,1,9.07-.64.59.59,0,0,1,.28.79A.56.56,0,0,1,100.51,53.06Z" transform="translate(0 9.69)"/><path class="cls-1" d="M107,82.52c-5.55-2.56-11.28-2-17.62-.29a.93.93,0,0,1-1.17-.6,1,1,0,0,1,.17-.88,12.16,12.16,0,0,1,11-4.54c3.62.27,6.91,1.47,8.81,5A.93.93,0,0,1,107,82.52Z" transform="translate(0 9.69)"/><path class="cls-1" d="M139.22,89.61c-2.89-1.51-5.59,1-11.87,3.11A48.75,48.75,0,0,1,110.86,95,53.3,53.3,0,0,1,98,93.44c-3.6-.91-6.45-2-8.78-.52a8.36,8.36,0,0,0-2.73,3.72,9.13,9.13,0,0,0-.65,4.38,9.94,9.94,0,0,0,3.26,5.86c1.8,1.77,5,4,12.54,5a56.22,56.22,0,0,0,21.77-1.13c10.34-2.67,14.62-6.77,16.13-8.34a9.45,9.45,0,0,0,2.84-7.61A6.67,6.67,0,0,0,139.22,89.61Zm.48,5.21a8.49,8.49,0,0,1-1.87,4.77c-2.82,3.82-7.57,5.76-9.21,6.38a69,69,0,0,1-10.92,2.54A49,49,0,0,1,98.82,108c-3.49-.84-6.91-2-8.91-5.63a.85.85,0,0,1,.34-1.15.84.84,0,0,1,.66-.07c5.15,1.66,10.12,2.93,15.14,2.6,1-.06,1.11-1.65.08-1.69a41.6,41.6,0,0,1-12.69-2.23c-1.14-.38-3.35-1.23-2.86-3s2.48-1.66,4-1.29A67.33,67.33,0,0,0,113,97.36a56.48,56.48,0,0,0,15.83-2.88,51.4,51.4,0,0,0,5.86-2.39,3.13,3.13,0,0,1,3.12-.38,3.28,3.28,0,0,1,1.84,2.78,1.17,1.17,0,0,1,0,.36Z" transform="translate(0 9.69)"/><path class="cls-1" d="M61.47-9.69Z" transform="translate(0 9.69)"/></g></svg>